<?xml version="1.0" encoding="UTF-8"?>
<svg id="community" xmlns="http://www.w3.org/2000/svg" viewBox="0 0 512 512">
  <defs>
    <style>
      .cls-1 {
        fill: #fff;
      }
    </style>
  </defs>
  <path class="cls-1" d="M326.26,218.9v-72.91c0-18.19-14.84-32.99-33.07-32.99H122.2c-18.23,0-33.07,14.8-33.07,32.99v72.91c0,.49,.01,.98,.04,1.47l-10.37,25.01c-4.08,6.21-3.69,14.1,1.07,19.93,3.34,4.09,8.11,6.28,13.05,6.28,2.42,0,4.89-.53,7.25-1.62,.25-.12,.5-.25,.73-.39l28.21-17.15c.34-.17,.67-.35,1-.54h163.07c18.23,0,33.07-14.8,33.07-32.99Zm-198.49,18.26c-1.76,0-3.47,.63-4.81,1.78-.25,.22-.41,.31-.5,.35-.25,.12-.49,.24-.73,.39l-28.04,17.05c-.91,.32-1.72,.08-2.37-.72-.72-.88-.74-1.79-.07-2.71,.36-.48,.66-1.01,.89-1.56l11.34-27.35c.47-1.13,.65-2.36,.52-3.58-.07-.63-.1-1.26-.1-1.91v-72.91c0-10.07,8.21-18.26,18.31-18.26h170.98c10.09,0,18.31,8.19,18.31,18.26v72.91c0,10.07-8.21,18.26-18.31,18.26H127.76Z"/>
  <path class="cls-1" d="M433.2,372.79l-10.37-25.01c.02-.49,.04-.98,.04-1.47v-50.6c0-18.19-14.84-32.99-33.08-32.99H250.12c-18.23,0-33.07,14.8-33.07,32.99v50.6c0,18.19,14.84,32.99,33.07,32.99h131.76c.33,.19,.66,.37,1,.54l28.21,17.15c.24,.14,.48,.27,.73,.39,2.36,1.09,4.82,1.62,7.25,1.62,4.94,0,9.71-2.19,13.05-6.28,4.77-5.83,5.15-13.72,1.07-19.93Zm-12.52,10.62c-.65,.81-1.46,1.04-2.37,.72l-28.05-17.05c-.24-.14-.48-.27-.73-.39-.08-.04-.24-.13-.49-.35-1.34-1.15-3.04-1.78-4.81-1.78H250.12c-10.09,0-18.31-8.19-18.31-18.26v-50.6c0-10.07,8.21-18.27,18.31-18.27h139.67c10.1,0,18.31,8.19,18.31,18.27v50.6c0,.64-.03,1.28-.1,1.9-.13,1.22,.05,2.45,.52,3.58l11.34,27.35c.23,.55,.53,1.08,.89,1.56,.68,.92,.65,1.83-.07,2.71Z"/>
  <path class="cls-1" d="M178.93,181.5c0-4.43-.68-8.6-2.04-12.51s-3.32-7.36-5.88-10.32c-2.57-2.96-5.7-5.28-9.39-6.95-3.69-1.67-7.79-2.5-12.28-2.5s-8.6,.83-12.29,2.5c-3.69,1.67-6.82,3.98-9.38,6.95-2.57,2.96-4.53,6.41-5.89,10.32-1.35,3.91-2.03,8.08-2.03,12.51s.68,8.61,2.03,12.52c1.36,3.91,3.32,7.35,5.89,10.31,2.56,2.96,5.69,5.28,9.38,6.95s7.79,2.5,12.29,2.5c2.54,0,5.03-.3,7.48-.91,2.46-.6,4.8-1.54,7.05-2.8l9,7.85,5.27-5.87-7.96-6.9c2.94-2.77,5.13-6.27,6.57-10.53,1.44-4.26,2.17-8.63,2.17-13.12Zm-12.11,9.41c-.87,2.94-2.22,5.53-4.07,7.77l-7.52-6.56-5.19,5.95,6.24,5.44c-2.02,.98-4.33,1.46-6.92,1.46-3.18,0-5.96-.65-8.35-1.94-2.39-1.3-4.36-3.04-5.89-5.26-1.53-2.22-2.67-4.72-3.42-7.52-.75-2.79-1.12-5.71-1.12-8.76s.37-5.98,1.12-8.8c.75-2.82,1.89-5.32,3.42-7.51,1.53-2.19,3.5-3.93,5.89-5.23,2.39-1.3,5.18-1.94,8.35-1.94s5.95,.65,8.34,1.94c2.39,1.3,4.36,3.05,5.89,5.26,1.53,2.22,2.67,4.72,3.42,7.52,.75,2.79,1.13,5.71,1.13,8.76,0,3.34-.44,6.48-1.3,9.41Z"/>
  <path class="cls-1" d="M272.89,150.68h-11.51l-23.13,60.14-10.62-12.83c1.33-2.07,2.38-4.4,3.16-6.99,.78-2.59,1.34-5.29,1.69-8.11h-8.66c-.17,1.78-.43,3.32-.77,4.61-.35,1.3-.73,2.52-1.13,3.67l-9.61-11.57c3.29-1.78,5.98-3.98,8.05-6.6,2.08-2.62,3.11-5.63,3.11-9.02,0-4.66-1.49-8.29-4.5-10.87-3-2.59-6.63-3.89-10.9-3.89s-7.86,1.35-10.77,4.05c-2.92,2.71-4.38,6.25-4.38,10.62,0,2.41,.53,4.61,1.6,6.6,1.07,1.99,2.61,4.27,4.63,6.86-4.22,2.13-7.63,4.65-10.26,7.55-2.62,2.91-3.94,6.34-3.94,10.32,0,5.7,1.81,10.17,5.41,13.42,3.61,3.25,8.3,4.87,14.06,4.87,3.64,0,6.87-.66,9.7-1.99,2.82-1.32,5.36-3.36,7.61-6.12l5.62,6.9h21.46l5.8-16.32h24.66l5.8,16.32h11.59l-23.79-61.63Zm-69.22,7.73c1.26-1.24,2.82-1.85,4.67-1.85s3.43,.66,4.58,1.98c1.16,1.33,1.73,3.03,1.73,5.09,0,2.19-.62,4-1.86,5.44-1.25,1.44-3.04,2.96-5.41,4.58-.29-.4-.81-1.06-1.56-1.99-1.33-1.72-2.34-3.19-3.03-4.4s-1.03-2.5-1.03-3.89c0-2.07,.63-3.73,1.9-4.96Zm12.28,41.13c-1.39,1.85-2.87,3.34-4.46,4.49-1.59,1.15-3.83,1.73-6.71,1.73s-5.34-.92-7.18-2.77c-1.85-1.84-2.78-4.37-2.78-7.6,0-2.76,.68-4.87,2.04-6.34,1.35-1.46,3.27-2.86,5.75-4.19,.92-.57,1.49-.91,1.73-1.03l12.12,15.01-.52,.69Zm41.62-11.74l9.35-26.5h.26l9.26,26.5h-18.87Z"/>
  <ellipse class="cls-1" cx="274.47" cy="321.06" rx="10.72" ry="10.7"/>
  <path class="cls-1" d="M318.97,310.36c-5.92,0-10.72,4.79-10.72,10.7s4.8,10.7,10.72,10.7,10.72-4.79,10.72-10.7-4.8-10.7-10.72-10.7Z"/>
  <ellipse class="cls-1" cx="363.47" cy="321.06" rx="10.72" ry="10.7"/>
</svg>