<?xml version="1.0" encoding="UTF-8"?>
<svg id="donate" xmlns="http://www.w3.org/2000/svg" viewBox="0 0 512 512">
  <defs>
    <style>
      .cls-1 {
        fill: #fff;
      }
    </style>
  </defs>
  <path class="cls-1" d="M222.04,351.47c.6-1.97,1.09-4.02,1.42-6.18,6.85-44.52-48.84-117.73-50.71-120.09-6.9-11.94-21.64-16.65-34.05-11.49l32.11-60.03c7.51-12.94,3.06-29.56-9.92-37.05-6.26-3.61-13.59-4.58-20.63-2.71-7.03,1.87-12.9,6.35-16.64,12.8l-39.15,73.15c-18.67,32.19-.68,61.24-.44,61.42,.99,2.37,24.38,58.16,34.5,74.49,3.24,5.23,.75,11.04-2.6,15.57l-20.1-.02c-3.8,0-6.89,3.06-6.89,6.86l-.03,33.64c0,3.79,3.07,6.87,6.88,6.87l126.19,.11c3.8,0,6.89-3.06,6.89-6.86l.03-33.64c0-3.78-3.06-6.85-6.85-6.87Zm-91.8-22.88c-9.56-15.42-33.28-71.99-34.03-73.57-.59-.95-14.24-23.41,.29-48.46l39.15-73.15c1.78-3.08,4.68-5.29,8.17-6.21,3.52-.93,7.1-.45,10.19,1.33,6.41,3.7,8.61,11.91,4.79,18.5l-39.15,73.16c-5.61,9.69-2.38,18.62-.02,21.69l5.87,10.16s0,.01,0,.02l22.41,40.6c1.25,2.27,3.61,3.55,6.03,3.55,1.12,0,2.26-.27,3.32-.85,3.33-1.83,4.54-6,2.71-9.33l-22.41-40.6s-.03-.05-.05-.08c-3.62-6.38-1.39-14.54,4.97-18.19,6.42-3.7,14.65-1.47,18.84,5.66,15.18,19.79,53.49,78.21,48.53,110.4-.48,3.09-1.35,5.83-2.6,8.25l-75.53-.07c2.91-7.01,3.38-14.95-1.48-22.8Zm84.86,56.51l-112.42-.1,.02-19.91,112.42,.1-.02,19.91Z"/>
  <path class="cls-1" d="M427.92,261.61c.24-.19,18.28-29.2-.34-61.43l-39.02-73.22c-3.73-6.46-9.59-10.95-16.62-12.83-7.04-1.88-14.37-.93-20.64,2.67-12.99,7.47-17.47,24.08-9.99,37.04l32,60.08c-12.4-5.18-27.15-.51-34.07,11.43-1.88,2.35-57.69,75.47-50.92,120,.33,2.16,.81,4.21,1.41,6.18-3.79,.01-6.85,3.07-6.86,6.86l-.03,33.64c0,3.79,3.07,6.87,6.88,6.87l126.19,.11c3.81,0,6.89-3.06,6.89-6.86l.03-33.64c0-3.79-3.07-6.87-6.88-6.87l-20.1-.02c-3.34-4.54-5.82-10.35-2.57-15.58,10.15-16.32,33.64-72.07,34.63-74.43Zm-18.87,123.66l-112.42-.1,.02-19.91,112.42,.1-.02,19.91Zm-27.47-56.46c-4.88,7.85-4.42,15.79-1.52,22.8l-75.53-.07c-1.25-2.42-2.11-5.16-2.58-8.25-4.9-32.2,33.51-90.55,48.73-110.32,4.21-7.13,12.44-9.34,18.85-5.63,6.35,3.67,8.57,11.83,4.94,18.2-.02,.03-.03,.05-.05,.08l-22.48,40.56c-1.84,3.32-.63,7.5,2.69,9.33,1.06,.58,2.2,.85,3.32,.85,2.43,0,4.78-1.28,6.04-3.54l22.48-40.56s0-.01,0-.02l5.89-10.15c2.36-3.07,5.62-11.99,.02-21.69l-39.03-73.23c-3.8-6.6-1.59-14.8,4.82-18.49,3.09-1.77,6.68-2.25,10.19-1.31,3.48,.94,6.38,3.14,8.15,6.23l39.02,73.22c14.48,25.07,.79,47.52,.2,48.46-.76,1.58-24.58,58.11-34.16,73.51Z"/>
  <path class="cls-1" d="M316.34,216.05c5.04-8.7,6.38-18.84,3.78-28.54-2.61-9.7-8.84-17.82-17.56-22.84-8.72-5.02-18.87-6.36-28.62-3.76-6.99,1.86-13.14,5.59-17.91,10.74-4.78-5.16-10.94-8.88-17.9-10.75-9.74-2.61-19.9-1.28-28.62,3.76-18,10.36-24.21,33.41-13.81,51.37,8.78,15.17,50.86,54.08,55.64,58.46,1.32,1.21,2.98,1.82,4.66,1.82,1.67,0,3.35-.6,4.67-1.81,4.78-4.39,46.91-43.27,55.7-58.44Zm-60.36,44.01c-14.77-13.84-42.52-40.78-48.38-50.9-6.6-11.41-2.67-26.04,8.77-32.63,3.68-2.12,7.71-3.15,11.72-3.15,8.41,0,16.71,4.57,21.57,13.14,1.07,2.55,3.86,3.58,6.64,3.59,2.77,0,5.56-2.28,6.64-4.83,3.2-5.52,8.36-9.47,14.55-11.12,6.18-1.66,12.64-.79,18.17,2.39,5.54,3.19,9.5,8.34,11.16,14.5,1.65,6.17,.8,12.6-2.41,18.13-5.84,10.11-33.63,37.05-48.43,50.88Z"/>
</svg>