<?xml version="1.0" encoding="UTF-8"?>
<svg id="enter" data-name="레이어 5" xmlns="http://www.w3.org/2000/svg" viewBox="0 0 512 512">
  <defs>
    <style>
      .cls-1 {
        fill: #fff;
      }
    </style>
  </defs>
  <g>
    <path class="cls-1" d="M78.93,249.66l37.2-29.76c1.96-1.57,4.87-.17,4.87,2.34v59.52c0,2.52-2.91,3.91-4.87,2.34l-37.2-29.76c-1.5-1.2-1.5-3.48,0-4.69Z"/>
    <path class="cls-1" d="M253.66,429.07l-29.76-37.2c-1.57-1.96-.17-4.87,2.34-4.87h59.52c2.52,0,3.91,2.91,2.34,4.87l-29.76,37.2c-1.2,1.5-3.48,1.5-4.69,0Z"/>
    <path class="cls-1" d="M258.34,74.93l29.76,37.2c1.57,1.96,.17,4.87-2.34,4.87h-59.52c-2.52,0-3.91-2.91-2.34-4.87l29.76-37.2c1.2-1.5,3.48-1.5,4.69,0Z"/>
    <path class="cls-1" d="M433.07,254.34l-37.2,29.76c-1.96,1.57-4.87,.17-4.87-2.34v-59.52c0-2.52,2.91-3.91,4.87-2.34l37.2,29.76c1.5,1.2,1.5,3.48,0,4.69Z"/>
  </g>
  <path class="cls-1" d="M274,144h-36c-49.71,0-90,40.29-90,90v36c0,49.71,40.29,90,90,90h36c49.71,0,90-40.29,90-90v-36c0-49.71-40.29-90-90-90Zm15.49,115.8l-50.99,29.42c-6,3.46-13.5-.87-13.5-7.8v-58.83c0-6.93,7.5-11.26,13.5-7.8l50.99,29.42c6,3.46,6,12.13,0,15.59Z"/>
</svg>