<?xml version="1.0" encoding="UTF-8"?>
<svg id="info" xmlns="http://www.w3.org/2000/svg" viewBox="0 0 512 512">
  <defs>
    <style>
      .cls-1 {
        fill: #fff;
      }
    </style>
  </defs>
  <path class="cls-1" d="M142.59,218.86h89.33c8.84,0,16.19-7.04,16.38-15.68l.82-34c.1-3.98-1.39-7.76-4.21-10.62-2.91-2.98-7.05-4.69-11.34-4.69h-84.25c-8.21,0-15.54,6.13-16.7,13.98l-4.97,33.99c-.64,4.33,.58,8.66,3.37,11.88,2.84,3.28,7.05,5.15,11.58,5.15Zm12.14-46c.08-.16,.46-.44,.79-.44h70.45s-.66,27.69-.66,27.69c-.02,.03-.14,.18-.37,.18h-74.21l4-27.42Z"/>
  <path class="cls-1" d="M279.94,218.86h89.33c4.52,0,8.74-1.88,11.58-5.15,2.79-3.22,4.01-7.55,3.38-11.87l-4.98-34.01c-1.16-7.83-8.49-13.97-16.7-13.97h-84.25c-4.29,0-8.43,1.71-11.34,4.69-2.82,2.87-4.31,6.65-4.21,10.62l.82,33.98c.2,8.66,7.54,15.7,16.38,15.7Zm76.52-46.43c.34,0,.72,.29,.76,.3l4.05,27.68-74.87-.12-.67-27.86h70.74Z"/>
  <path class="cls-1" d="M133.92,302.43h46.33c8.72,0,15.97-6.69,16.65-15.37l2.69-34.61c.3-3.92-.98-7.65-3.62-10.5-2.67-2.88-6.51-4.52-10.56-4.52h-44.05c-7.71,0-14.68,5.87-15.85,13.38l-5.51,35.21c-.66,4.24,.5,8.47,3.18,11.59,2.64,3.07,6.56,4.83,10.75,4.83Zm5.47-54.05c.1-.58,1.02-1.39,1.81-1.39l44.41-.27-2.76,35.54c-.07,.91-.88,1.65-1.79,1.65l-47.22-.05,5.55-35.48Z"/>
  <path class="cls-1" d="M277.96,237.43h-44.06c-8,0-14.76,6.37-15.06,14.19l-1.39,35.19c-.17,4.16,1.32,8.08,4.18,11.05,2.84,2.95,6.67,4.57,10.79,4.57h47.02c4.12,0,7.95-1.62,10.79-4.57,2.86-2.97,4.34-6.9,4.18-11.05l-1.39-35.19c-.3-7.83-7.06-14.2-15.06-14.2Zm1.82,46.43h-47.69l-.76-.88,1.41-35.71c0-.17,.33-.55,.85-.55h44.69c.51,0,.85,.39,.85,.56l1.19,36.37c-.18,.18-.39,.21-.53,.21Z"/>
  <path class="cls-1" d="M370.5,237.43h-44.05c-4.05,0-7.89,1.65-10.56,4.52-2.64,2.85-3.93,6.58-3.62,10.49l2.69,34.62c.67,8.67,7.93,15.37,16.64,15.37h46.33c4.19,0,8.11-1.76,10.75-4.83,2.67-3.12,3.84-7.35,3.17-11.6l-5.51-35.21c-1.17-7.49-8.14-13.37-15.85-13.37Zm7.8,46.43h-47.52c-.98,0-1.84-.8-1.92-1.77l-2.78-35.37h44.68c.79,0,1.73,.82,1.82,1.39l5.86,35.74s-.04,.02-.14,.02Z"/>
  <path class="cls-1" d="M435.81,298.37c.13-2.98-.08-6.04-.67-9.11l-26.05-135.49c-3-15.57-19-27.77-36.43-27.77H139.21c-17.43,0-33.43,12.19-36.44,27.77l-26.05,135.49c-.59,3.07-.8,6.13-.67,9.11h-.03v26.27c0,15.78,12.44,28.66,28.08,29.41,.02,.58,.1,1.18,.28,1.8l1.33,4.68c4.09,14.36,18.14,25.47,31.54,25.47h38.46c13.39,0,23.07-11.11,21.49-25.47l-.51-4.68c-.07-.61-.21-1.2-.42-1.77h14.55c-.09,.57-.12,1.16-.07,1.77l.41,4.68c1.26,14.36,13.12,25.47,26.51,25.47h38.46c13.39,0,25.26-11.11,26.52-25.47l.41-4.68c.05-.61,.02-1.2-.07-1.77h14.55c-.2,.57-.35,1.16-.42,1.77l-.51,4.68c-1.57,14.36,8.1,25.47,21.49,25.47h38.46c13.39,0,27.45-11.11,31.54-25.47l1.33-4.68c.17-.61,.26-1.2,.28-1.77,16.2-.09,26.29-13.24,26.29-29.44v-26.27h-.19Zm-158.73,69.06h-40.37c-6.25,4.17-11.74-.55-13.11-9.29h66.6c-1.38,8.73-6.86,13.46-13.11,9.29ZM115.93,160.43c1.65-8.59,11.73-15.86,22.02-15.86h235.97c10.28,0,20.36,7.27,22.01,15.86l26.33,136.95c1.27,6.58-.11,12.9-3.77,17.33-3.36,4.05-8.42,6.29-14.23,6.29H107.6c-5.82,0-10.88-2.24-14.23-6.29-2.4-2.9-3.81-6.61-4.15-10.67v-3.89c.07-.92,.2-1.84,.38-2.77l26.33-136.95Zm58.32,207h-40.37c-6.25,4.17-12.67-.55-15.29-9.29h66.6c-.14,8.73-4.69,13.46-10.94,9.29Zm205.68,0h-40.37c-6.25,4.17-10.81-.55-10.94-9.29h66.6c-2.62,8.73-9.04,13.46-15.29,9.29Zm25.88-22.63H109.26c-8.08,0-20.04-6.53-20.04-14.59v-6.24c5.58,4.11,12.45,6.33,19.97,6.33H402.67c7.58,0,14.51-2.25,20.11-6.43v6.35c0,8.06-8.89,14.59-16.97,14.59Z"/>
</svg>