<?xml version="1.0" encoding="UTF-8"?>
<svg id="library" xmlns="http://www.w3.org/2000/svg" viewBox="0 0 512 512">
  <defs>
    <style>
      .cls-1 {
        fill: #fff;
      }
    </style>
  </defs>
  <path class="cls-1" d="M431.43,180.34c-.61-.25-24.62-5.82-24.62-5.82v-1.67s4.44-5.54,1.76-6.69c-.87-.38-40.67-10.35-40.67-10.35v-43.21c0-3.7-2.8-6.94-6.5-7.24-59.94-4.99-96.03,42.58-106.3,58.37-17.02-5.54-34.54-9.1-52.35-10.52,2.6,4.72,4.67,9.77,6.2,15.06,14.32,1.61,28.44,4.51,42.18,9.01v181.75c-22.22-6.78-45.25-10.21-68.59-10.21-30.7,0-54.74,5.9-67.62,9.94v-95.43l-14.92-5.16v110.8c0,2.53-.12,3.64,2,5.03,2.1,1.39,1.62,2.89,3.97,1.88,.29-.12,29.98-12.6,73.04-12.6,25.46,0,50.51,4.3,74.47,12.78,.03,.01,.06,0,.09,.02,.02,0,.04,.03,.06,.03,.01,0,.03,0,.04,0,.75,.24,1.53,.38,2.32,.38s1.62-.15,2.39-.41c.04-.01,.09,0,.13-.02,23.96-8.48,49.01-12.78,74.47-12.78,43.05,0,72.74,12.48,73.04,12.6,2.35,1,5.02,.75,7.12-.63,2.12-1.4,3.4-3.76,3.4-6.28V189.67l9.73,2.55v196.21c-16.13-6.5-49.1-17.22-91.29-17.22-16.7,0-33.37,1.72-49.57,5.11-3.2,.67-6.19,3.08-6.57,6.32-.55,4.71-7.94,9.79-17.98,9.79s-17.43-5.07-17.98-9.79c-.38-3.24-3.37-5.65-6.57-6.32-16.2-3.39-32.87-5.11-49.57-5.11-42.19,0-75.16,10.72-91.29,17.22V253.53l-19.46-12.21v158.33c0,2.57,1.35,4.95,3.55,6.28,2.2,1.34,4.94,1.41,7.23,.23,.39-.2,39.75-20.36,95.17-20.36,14.46,0,28.91,1.37,43,4.08,4.32,10.06,16.64,17.12,31.06,17.12s26.74-7.06,31.06-17.12c14.09-2.71,28.54-4.08,43-4.08,55.42,0,94.77,20.16,95.17,20.36,2.29,1.18,5.02,1.11,7.23-.23,2.19-1.33,3.55-3.71,3.55-6.28V187.1s-1.83-5.63-4.57-6.75Zm-160.83,172.56V178.2c5.45-9.13,35.87-55.96,86.82-55.96h.75v182.3c-39.4,3.67-70.94,30.75-87.57,48.35Zm126.49,6.48c-12.72-4-36.47-9.82-66.79-9.82-17.63,0-35.07,2.02-52.12,5.94,17.64-16.84,47.48-39.09,82.63-39.75,3.99-.08,7.1-3.53,7.1-7.52V169.88c13.6,2.37,23.77,5.48,29.19,7.37v182.13Z"/>
  <path class="cls-1" d="M134.53,247.88c22.1,0,41.32-12.34,51.12-30.5,.83-1.54-2.67-7.68-2.67-7.68h-12.42s-2.29,3.52-3,4.48c-7.47,10.12-19.47,16.7-33.02,16.7-14.24,0-26.76-7.26-34.12-18.26-1.61-2.41-3.15-7.77-4.31-12.64h89.15s7.5-7.84,7.3-11.62c-.17-3.16-.45-6.25-1.02-9.27-5.27-27.85-30.45-48.67-60.22-47.06-29.88,1.62-54.38,27.15-54.8,57.03-.46,32.4,25.7,58.81,58.03,58.81Zm0-97.48c18.88,0,34.61,12.81,39.39,30.15H95.14c4.78-17.34,20.51-30.15,39.39-30.15Z"/>
</svg>