<?xml version="1.0" encoding="UTF-8"?>
<svg id="_레이어_4" data-name="레이어 4" xmlns="http://www.w3.org/2000/svg" viewBox="0 0 512 512">
  <defs>
    <style>
      .cls-1 {
        fill: #fff;
      }
    </style>
  </defs>
  <path class="cls-1" d="M411,432c4.97,0,9-4.03,9-9v-18c0-4.97-4.03-9-9-9h-62.99c43.71-32.84,71.99-85.12,71.99-144,0-99.41-80.59-180-180-180S60,152.59,60,252s80.59,180,180,180h171Zm-106.23-172.21l-97.54,56.31c-6,3.46-13.5-.87-13.5-7.79v-112.62c0-6.93,7.5-11.26,13.5-7.79l97.54,56.31c6,3.46,6,12.12,0,15.59Z"/>
</svg>