<?xml version="1.0" encoding="UTF-8"?>
<svg id="_레이어_1" data-name="레이어 1" xmlns="http://www.w3.org/2000/svg" viewBox="0 0 512 512">
  <defs>
    <style>
      .cls-1 {
        fill: #fff;
      }
    </style>
  </defs>
  <g>
    <path class="cls-1" d="M433.36,129.53c3.51-3.51,3.51-9.21,0-12.72l-38.17-38.17c-3.51-3.51-9.21-3.51-12.72,0L238.24,222.87l-9.54,28.63,31.81,31.81,28.63-9.54,144.23-144.23Z"/>
    <path class="cls-1" d="M218.48,282.14c-2.34,7.03,4.35,13.73,11.38,11.38l21.1-7.03-25.45-25.45-7.03,21.1Z"/>
  </g>
  <path class="cls-1" d="M364,224.35v157.65c0,9.94-8.06,18-18,18H130c-9.94,0-18-8.06-18-18V166c0-9.94,8.06-18,18-18h157.65l36-36H112c-19.88,0-36,16.12-36,36v252c0,19.88,16.12,36,36,36h252c19.88,0,36-16.12,36-36V188.35l-36,36Z"/>
</svg>