<?xml version="1.0" encoding="UTF-8"?>
<svg id="_레이어_3" data-name="레이어 3" xmlns="http://www.w3.org/2000/svg" viewBox="0 0 512 512">
  <defs>
    <style>
      .cls-1 {
        fill: #fff;
      }
    </style>
  </defs>
  <path class="cls-1" d="M433.37,407.97l-82.54-82.54c-3.51-3.51-9.19-3.51-12.7,0l-10.16-10.16c22.42-25.39,36.03-58.74,36.03-95.27,0-79.53-64.47-144-144-144S76,140.47,76,220s64.47,144,144,144c36.53,0,69.88-13.61,95.27-36.03l10.16,10.16c-3.51,3.51-3.51,9.19,0,12.7l82.54,82.54c3.51,3.51,9.19,3.51,12.7,0l6.35-6.35s0,0,0,0h0s6.35-6.35,6.35-6.35c3.51-3.51,3.51-9.19,0-12.7Zm-130.92-118.22c-3.88,4.58-8.12,8.82-12.7,12.7-18.82,15.94-43.16,25.55-69.75,25.55-59.65,0-108-48.35-108-108s48.35-108,108-108,108,48.35,108,108c0,26.59-9.62,50.93-25.55,69.75Z"/>
</svg>